<svg width="296" height="361" viewBox="0 0 296 361" fill="none" xmlns="http://www.w3.org/2000/svg">
<path d="M5.25002 174.386C5.25002 139.701 28.1233 55.3519 40.3113 17.5L256.69 19.9903C264.203 21.9825 291.25 153.011 291.25 180.363C291.25 201.779 270.38 288.108 256.69 329.778C237 336.5 187.5 350.198 150.504 350.198C113.534 350.198 57.1939 339.21 38.5 328.5C28.3155 292.142 5.25001 217 5.25002 174.386Z" fill="#50351A" stroke="#691B1B"/>
<g filter="url(#filter0_d_9_3)">
<path d="M259.19 18.5332C264.657 37.0153 272.853 67.237 279.684 97.8613C286.505 128.444 292 159.575 292 179.807C292 200.048 286.502 229.339 279.678 257.625C272.844 285.949 264.646 313.408 259.177 330.051L258.951 330.736L258.274 330.988C239.397 338.011 191.235 352.062 149.5 352.062C106.887 352.062 57.7086 338.013 38.4316 330.991L37.7529 330.744L37.5234 330.06C31.938 313.417 23.5648 285.956 16.5859 257.632C9.6167 229.346 4 200.052 4 179.807C4.0001 159.571 9.61229 128.438 16.5791 97.8555C23.5557 67.2305 31.9262 37.008 37.5088 18.5254L38.1641 16.3555L39.9053 17.8066C41.5211 19.1533 44.7971 20.7425 50.0947 22.3467C55.3426 23.9357 62.4236 25.4955 71.5068 26.8691C89.5398 29.5962 115.373 31.5704 150.241 31.5986C184.377 31.5704 209.303 29.5968 226.589 26.8711C235.295 25.4982 242.04 23.9391 247.035 22.3525C252.073 20.7525 255.193 19.1662 256.779 17.8164L258.536 16.3213L259.19 18.5332ZM39.7891 21.3682C34.2348 39.9288 26.2205 69.0419 19.5049 98.5215C12.5364 129.111 7.0001 159.946 7 179.807C7 199.656 12.5319 228.641 19.498 256.914C26.3592 284.761 34.5765 311.777 40.1377 328.416C59.7153 335.457 107.874 349.062 149.5 349.062C190.24 349.062 237.377 335.465 256.552 328.423C261.997 311.783 270.043 284.768 276.761 256.922C283.582 228.649 289 199.66 289 179.807C289 159.943 283.578 129.104 276.755 98.5146C270.184 69.0565 262.343 39.9642 256.905 21.4014C254.789 22.7037 251.803 23.9859 247.943 25.2119C242.762 26.8576 235.861 28.4457 227.057 29.834C209.7 32.5707 184.851 34.541 151 34.5977V34.6006C150.747 34.6006 150.494 34.5988 150.241 34.5986C149.995 34.5988 149.748 34.6006 149.5 34.6006V34.5977C114.903 34.5422 89.1513 32.5722 71.0576 29.8359C61.8823 28.4484 54.6524 26.861 49.2256 25.2178C45.1419 23.9812 41.9896 22.6858 39.7891 21.3682Z" fill="black"/>
</g>
<path d="M148.5 1.5C178.96 1.5 206.503 3.45624 226.4 6.60742C236.361 8.18486 244.337 10.0512 249.79 12.0928C252.525 13.1167 254.536 14.1528 255.837 15.1592C257.166 16.1877 257.5 16.9802 257.5 17.5C257.5 18.0198 257.166 18.8123 255.837 19.8408C254.536 20.8472 252.525 21.8833 249.79 22.9072C244.337 24.9488 236.361 26.8151 226.4 28.3926C206.503 31.5438 178.96 33.5 148.5 33.5C118.04 33.5 90.4972 31.5438 70.5996 28.3926C60.6392 26.8151 52.6627 24.9488 47.21 22.9072C44.4753 21.8833 42.4635 20.8472 41.1631 19.8408C39.8342 18.8123 39.5 18.0198 39.5 17.5C39.5 16.9802 39.8342 16.1877 41.1631 15.1592C42.4635 14.1528 44.4753 13.1167 47.21 12.0928C52.6627 10.0512 60.6392 8.18486 70.5996 6.60742C90.4972 3.45624 118.04 1.5 148.5 1.5Z" fill="black" stroke="black" stroke-width="3"/>
<path d="M28 59C28 59 100.563 78.1866 148 78.1866C195.437 78.1866 268 59 268 59M33 305.902C38.1502 304.41 101.137 316 148 316C194.863 316 259 305 264.5 307" stroke="black" stroke-width="18"/>
<defs>
<filter id="filter0_d_9_3" x="0" y="16.3213" width="296" height="343.741" filterUnits="userSpaceOnUse" color-interpolation-filters="sRGB">
<feFlood flood-opacity="0" result="BackgroundImageFix"/>
<feColorMatrix in="SourceAlpha" type="matrix" values="0 0 0 0 0 0 0 0 0 0 0 0 0 0 0 0 0 0 127 0" result="hardAlpha"/>
<feOffset dy="4"/>
<feGaussianBlur stdDeviation="2"/>
<feComposite in2="hardAlpha" operator="out"/>
<feColorMatrix type="matrix" values="0 0 0 0 0 0 0 0 0 0 0 0 0 0 0 0 0 0 0.25 0"/>
<feBlend mode="normal" in2="BackgroundImageFix" result="effect1_dropShadow_9_3"/>
<feBlend mode="normal" in="SourceGraphic" in2="effect1_dropShadow_9_3" result="shape"/>
</filter>
</defs>
</svg>
