<svg width="164" height="149" viewBox="0 0 164 149" fill="none" xmlns="http://www.w3.org/2000/svg">
<path d="M3.0482 67.0077L48.1306 108.52C53.1398 122.687 70.314 144.431 81.5482 144.102C90.5355 143.838 109.493 124.664 114.966 108.52L160.048 67.0077L100.627 81.6688L81.5482 16.1057L62.4698 81.6688L3.0482 67.0077Z" fill="#D9D9D9" stroke="black" stroke-width="9"/>
<mask id="path-2-outside-1_9_6" maskUnits="userSpaceOnUse" x="59.0482" y="89.1057" width="47" height="21" fill="black">
<rect fill="white" x="59.0482" y="89.1057" width="47" height="21"/>
<path d="M68.2954 108.458C66.7688 108.458 65.4295 108.095 64.2773 107.368C63.1324 106.642 62.237 105.625 61.5912 104.319C60.9527 103.012 60.6334 101.486 60.6334 99.7392C60.6334 97.9779 60.9527 96.4403 61.5912 95.1267C62.237 93.813 63.1324 92.7929 64.2773 92.0663C65.4295 91.3397 66.7688 90.9765 68.2954 90.9765C69.8219 90.9765 71.1576 91.3397 72.3025 92.0663C73.4547 92.7929 74.35 93.813 74.9885 95.1267C75.6344 96.4403 75.9573 97.9779 75.9573 99.7392C75.9573 101.486 75.6344 103.012 74.9885 104.319C74.35 105.625 73.4547 106.642 72.3025 107.368C71.1576 108.095 69.8219 108.458 68.2954 108.458ZM68.2954 106.124C69.4549 106.124 70.409 105.827 71.1576 105.232C71.9062 104.638 72.4603 103.856 72.8199 102.888C73.1795 101.919 73.3593 100.869 73.3593 99.7392C73.3593 98.609 73.1795 97.5559 72.8199 96.5798C72.4603 95.6037 71.9062 94.8148 71.1576 94.213C70.409 93.6112 69.4549 93.3103 68.2954 93.3103C67.1358 93.3103 66.1817 93.6112 65.4331 94.213C64.6846 94.8148 64.1305 95.6037 63.7709 96.5798C63.4112 97.5559 63.2314 98.609 63.2314 99.7392C63.2314 100.869 63.4112 101.919 63.7709 102.888C64.1305 103.856 64.6846 104.638 65.4331 105.232C66.1817 105.827 67.1358 106.124 68.2954 106.124ZM79.9231 108.106V91.1966H82.4331V93.7506H82.6092C82.9174 92.914 83.4752 92.2351 84.2825 91.714C85.0898 91.193 85.9998 90.9324 87.0126 90.9324C87.2034 90.9324 87.4419 90.9361 87.7282 90.9434C88.0144 90.9508 88.2309 90.9618 88.3777 90.9765V93.6185C88.2896 93.5965 88.0878 93.5635 87.7722 93.5194C87.464 93.468 87.1374 93.4424 86.7924 93.4424C85.9705 93.4424 85.2366 93.6148 84.5907 93.9598C83.9522 94.2974 83.4458 94.7671 83.0716 95.3689C82.7046 95.9633 82.5211 96.6422 82.5211 97.4054V108.106H79.9231ZM90.9729 108.106V106.124L100.572 93.7946V93.6185H91.2812V91.1966H103.919V93.2662L94.5837 105.508V105.684H104.227V108.106H90.9729Z"/>
</mask>
<path d="M68.2954 108.458C66.7688 108.458 65.4295 108.095 64.2773 107.368C63.1324 106.642 62.237 105.625 61.5912 104.319C60.9527 103.012 60.6334 101.486 60.6334 99.7392C60.6334 97.9779 60.9527 96.4403 61.5912 95.1267C62.237 93.813 63.1324 92.7929 64.2773 92.0663C65.4295 91.3397 66.7688 90.9765 68.2954 90.9765C69.8219 90.9765 71.1576 91.3397 72.3025 92.0663C73.4547 92.7929 74.35 93.813 74.9885 95.1267C75.6344 96.4403 75.9573 97.9779 75.9573 99.7392C75.9573 101.486 75.6344 103.012 74.9885 104.319C74.35 105.625 73.4547 106.642 72.3025 107.368C71.1576 108.095 69.8219 108.458 68.2954 108.458ZM68.2954 106.124C69.4549 106.124 70.409 105.827 71.1576 105.232C71.9062 104.638 72.4603 103.856 72.8199 102.888C73.1795 101.919 73.3593 100.869 73.3593 99.7392C73.3593 98.609 73.1795 97.5559 72.8199 96.5798C72.4603 95.6037 71.9062 94.8148 71.1576 94.213C70.409 93.6112 69.4549 93.3103 68.2954 93.3103C67.1358 93.3103 66.1817 93.6112 65.4331 94.213C64.6846 94.8148 64.1305 95.6037 63.7709 96.5798C63.4112 97.5559 63.2314 98.609 63.2314 99.7392C63.2314 100.869 63.4112 101.919 63.7709 102.888C64.1305 103.856 64.6846 104.638 65.4331 105.232C66.1817 105.827 67.1358 106.124 68.2954 106.124ZM79.9231 108.106V91.1966H82.4331V93.7506H82.6092C82.9174 92.914 83.4752 92.2351 84.2825 91.714C85.0898 91.193 85.9998 90.9324 87.0126 90.9324C87.2034 90.9324 87.4419 90.9361 87.7282 90.9434C88.0144 90.9508 88.2309 90.9618 88.3777 90.9765V93.6185C88.2896 93.5965 88.0878 93.5635 87.7722 93.5194C87.464 93.468 87.1374 93.4424 86.7924 93.4424C85.9705 93.4424 85.2366 93.6148 84.5907 93.9598C83.9522 94.2974 83.4458 94.7671 83.0716 95.3689C82.7046 95.9633 82.5211 96.6422 82.5211 97.4054V108.106H79.9231ZM90.9729 108.106V106.124L100.572 93.7946V93.6185H91.2812V91.1966H103.919V93.2662L94.5837 105.508V105.684H104.227V108.106H90.9729Z" fill="black"/>
<path d="M64.2773 107.368L63.7414 108.212L63.7439 108.214L64.2773 107.368ZM61.5912 104.319L60.6927 104.758L60.6947 104.762L61.5912 104.319ZM61.5912 95.1267L60.6937 94.6855L60.6918 94.6895L61.5912 95.1267ZM64.2773 92.0663L63.7439 91.2204L63.7414 91.222L64.2773 92.0663ZM72.3025 92.0663L71.7666 92.9106L71.7691 92.9122L72.3025 92.0663ZM74.9885 95.1267L74.0891 95.5638L74.0911 95.5679L74.9885 95.1267ZM74.9885 104.319L74.0921 103.876L74.0901 103.88L74.9885 104.319ZM72.3025 107.368L71.7691 106.522L71.7666 106.524L72.3025 107.368ZM71.1576 105.232L70.5357 104.449V104.449L71.1576 105.232ZM72.8199 102.888L73.7574 103.236V103.236L72.8199 102.888ZM72.8199 96.5798L73.7582 96.2341V96.2341L72.8199 96.5798ZM71.1576 94.213L71.7841 93.4336L71.7841 93.4336L71.1576 94.213ZM65.4331 94.213L64.8066 93.4336L64.8066 93.4336L65.4331 94.213ZM63.7709 96.5798L62.8325 96.2341L62.8325 96.2341L63.7709 96.5798ZM63.7709 102.888L62.8334 103.236V103.236L63.7709 102.888ZM65.4331 105.232L66.055 104.449H66.055L65.4331 105.232ZM68.2954 108.458V107.458C66.9342 107.458 65.7844 107.136 64.8106 106.522L64.2773 107.368L63.7439 108.214C65.0745 109.053 66.6035 109.458 68.2954 109.458V108.458ZM64.2773 107.368L64.8131 106.524C63.8344 105.903 63.0585 105.03 62.4876 103.876L61.5912 104.319L60.6947 104.762C61.4155 106.22 62.4303 107.38 63.7414 108.212L64.2773 107.368ZM61.5912 104.319L62.4896 103.88C61.9301 102.735 61.6334 101.364 61.6334 99.7392H60.6334H59.6334C59.6334 101.608 59.9753 103.29 60.6927 104.758L61.5912 104.319ZM60.6334 99.7392H61.6334C61.6334 98.0986 61.9305 96.7161 62.4906 95.5638L61.5912 95.1267L60.6918 94.6895C59.9748 96.1646 59.6334 97.8572 59.6334 99.7392H60.6334ZM61.5912 95.1267L62.4886 95.5679C63.06 94.4056 63.8358 93.5308 64.8131 92.9106L64.2773 92.0663L63.7414 91.222C62.4289 92.0549 61.414 93.2203 60.6938 94.6855L61.5912 95.1267ZM64.2773 92.0663L64.8106 92.9122C65.7844 92.2981 66.9342 91.9765 68.2954 91.9765V90.9765V89.9765C66.6035 89.9765 65.0745 90.3813 63.7439 91.2204L64.2773 92.0663ZM68.2954 90.9765V91.9765C69.6567 91.9765 70.8015 92.2982 71.7666 92.9106L72.3025 92.0663L72.8383 91.222C71.5136 90.3813 69.9871 89.9765 68.2954 89.9765V90.9765ZM72.3025 92.0663L71.7691 92.9122C72.7521 93.532 73.526 94.4052 74.0891 95.5638L74.9885 95.1267L75.8879 94.6895C75.1741 93.2208 74.1573 92.0537 72.8358 91.2204L72.3025 92.0663ZM74.9885 95.1267L74.0911 95.5679C74.6571 96.7191 74.9573 98.1001 74.9573 99.7392H75.9573H76.9573C76.9573 97.8556 76.6116 96.1616 75.886 94.6855L74.9885 95.1267ZM75.9573 99.7392H74.9573C74.9573 101.362 74.6576 102.732 74.0921 103.876L74.9885 104.319L75.885 104.762C76.6112 103.293 76.9573 101.609 76.9573 99.7392H75.9573ZM74.9885 104.319L74.0901 103.88C73.5274 105.031 72.7535 105.902 71.7691 106.522L72.3025 107.368L72.8358 108.214C74.1559 107.382 75.1727 106.219 75.887 104.758L74.9885 104.319ZM72.3025 107.368L71.7666 106.524C70.8015 107.136 69.6567 107.458 68.2954 107.458V108.458V109.458C69.9871 109.458 71.5136 109.053 72.8383 108.212L72.3025 107.368ZM68.2954 106.124V107.124C69.6311 107.124 70.8187 106.779 71.7795 106.016L71.1576 105.232L70.5357 104.449C69.9993 104.875 69.2788 105.124 68.2954 105.124V106.124ZM71.1576 105.232L71.7795 106.016C72.6825 105.298 73.3396 104.361 73.7574 103.236L72.8199 102.888L71.8824 102.54C71.5809 103.352 71.1298 103.978 70.5357 104.449L71.1576 105.232ZM72.8199 102.888L73.7574 103.236C74.162 102.146 74.3593 100.977 74.3593 99.7392H73.3593H72.3593C72.3593 100.762 72.1969 101.692 71.8824 102.54L72.8199 102.888ZM73.3593 99.7392H74.3593C74.3593 98.5013 74.162 97.3301 73.7582 96.2341L72.8199 96.5798L71.8815 96.9255C72.197 97.7817 72.3593 98.7168 72.3593 99.7392H73.3593ZM72.8199 96.5798L73.7582 96.2341C73.3413 95.1025 72.6857 94.1584 71.7841 93.4336L71.1576 94.213L70.531 94.9923C71.1266 95.4711 71.5792 96.1049 71.8815 96.9255L72.8199 96.5798ZM71.1576 94.213L71.7841 93.4336C70.8232 92.6611 69.6339 92.3103 68.2954 92.3103V93.3103V94.3103C69.2759 94.3103 69.9948 94.5612 70.531 94.9923L71.1576 94.213ZM68.2954 93.3103V92.3103C66.9568 92.3103 65.7675 92.6611 64.8066 93.4336L65.4331 94.213L66.0597 94.9923C66.596 94.5612 67.3148 94.3103 68.2954 94.3103V93.3103ZM65.4331 94.213L64.8066 93.4336C63.905 94.1584 63.2494 95.1025 62.8325 96.2341L63.7709 96.5798L64.7092 96.9255C65.0115 96.1049 65.4641 95.4711 66.0597 94.9923L65.4331 94.213ZM63.7709 96.5798L62.8325 96.2341C62.4287 97.3301 62.2314 98.5013 62.2314 99.7392H63.2314H64.2314C64.2314 98.7168 64.3938 97.7817 64.7092 96.9255L63.7709 96.5798ZM63.2314 99.7392H62.2314C62.2314 100.977 62.4287 102.146 62.8334 103.236L63.7709 102.888L64.7084 102.54C64.3938 101.692 64.2314 100.762 64.2314 99.7392H63.2314ZM63.7709 102.888L62.8334 103.236C63.2512 104.361 63.9082 105.298 64.8113 106.016L65.4331 105.232L66.055 104.449C65.4609 103.978 65.0098 103.352 64.7084 102.54L63.7709 102.888ZM65.4331 105.232L64.8113 106.016C65.772 106.779 66.9596 107.124 68.2954 107.124V106.124V105.124C67.312 105.124 66.5914 104.875 66.055 104.449L65.4331 105.232ZM79.9231 108.106H78.9231V109.106H79.9231V108.106ZM79.9231 91.1966V90.1966H78.9231V91.1966H79.9231ZM82.4331 91.1966H83.4331V90.1966H82.4331V91.1966ZM82.4331 93.7506H81.4331V94.7506H82.4331V93.7506ZM82.6092 93.7506V94.7506H83.3065L83.5475 94.0963L82.6092 93.7506ZM84.2825 91.714L83.7402 90.8738H83.7402L84.2825 91.714ZM88.3777 90.9765H89.3777V90.0715L88.4772 89.9814L88.3777 90.9765ZM88.3777 93.6185L88.1351 94.5886L89.3777 94.8993V93.6185H88.3777ZM87.7722 93.5194L87.6078 94.5058L87.6209 94.508L87.634 94.5098L87.7722 93.5194ZM84.5907 93.9598L85.0582 94.8438L85.0618 94.8418L84.5907 93.9598ZM83.0716 95.3689L82.2224 94.8407L82.2206 94.8436L83.0716 95.3689ZM82.5211 108.106V109.106H83.5211V108.106H82.5211ZM79.9231 108.106H80.9231V91.1966H79.9231H78.9231V108.106H79.9231ZM79.9231 91.1966V92.1966H82.4331V91.1966V90.1966H79.9231V91.1966ZM82.4331 91.1966H81.4331V93.7506H82.4331H83.4331V91.1966H82.4331ZM82.4331 93.7506V94.7506H82.6092V93.7506V92.7506H82.4331V93.7506ZM82.6092 93.7506L83.5475 94.0963C83.7749 93.4792 84.1846 92.9674 84.8248 92.5542L84.2825 91.714L83.7402 90.8738C82.7658 91.5028 82.06 92.3487 81.6709 93.4049L82.6092 93.7506ZM84.2825 91.714L84.8248 92.5542C85.4615 92.1432 86.1813 91.9324 87.0126 91.9324V90.9324V89.9324C85.8184 89.9324 84.718 90.2427 83.7402 90.8738L84.2825 91.714ZM87.0126 90.9324V91.9324C87.1918 91.9324 87.4211 91.9359 87.7025 91.9431L87.7282 90.9434L87.7538 89.9438C87.4628 89.9363 87.215 89.9324 87.0126 89.9324V90.9324ZM87.7282 90.9434L87.7025 91.9431C87.9824 91.9503 88.1691 91.9606 88.2782 91.9715L88.3777 90.9765L88.4772 89.9814C88.2926 89.963 88.0464 89.9513 87.7538 89.9438L87.7282 90.9434ZM88.3777 90.9765H87.3777V93.6185H88.3777H89.3777V90.9765H88.3777ZM88.3777 93.6185L88.6202 92.6484C88.4701 92.6108 88.211 92.571 87.9104 92.529L87.7722 93.5194L87.634 94.5098C87.7878 94.5313 87.9086 94.5493 87.9988 94.5641C88.0438 94.5715 88.0783 94.5775 88.1037 94.5824C88.1312 94.5876 88.1394 94.5897 88.1351 94.5886L88.3777 93.6185ZM87.7722 93.5194L87.9366 92.533C87.5688 92.4717 87.1868 92.4424 86.7924 92.4424V93.4424V94.4424C87.0879 94.4424 87.3591 94.4644 87.6078 94.5058L87.7722 93.5194ZM86.7924 93.4424V92.4424C85.8266 92.4424 84.9274 92.6462 84.1196 93.0777L84.5907 93.9598L85.0618 94.8418C85.5457 94.5834 86.1144 94.4424 86.7924 94.4424V93.4424ZM84.5907 93.9598L84.1233 93.0757C83.3314 93.4944 82.692 94.0856 82.2224 94.8407L83.0716 95.3689L83.9207 95.897C84.1996 95.4485 84.573 95.1003 85.0581 94.8438L84.5907 93.9598ZM83.0716 95.3689L82.2206 94.8436C81.7473 95.6104 81.5211 96.4744 81.5211 97.4054H82.5211H83.5211C83.5211 96.8099 83.6619 96.3162 83.9225 95.8941L83.0716 95.3689ZM82.5211 97.4054H81.5211V108.106H82.5211H83.5211V97.4054H82.5211ZM82.5211 108.106V107.106H79.9231V108.106V109.106H82.5211V108.106ZM90.9729 108.106H89.9729V109.106H90.9729V108.106ZM90.9729 106.124L90.1839 105.51L89.9729 105.781V106.124H90.9729ZM100.572 93.7946L101.361 94.409L101.572 94.138V93.7946H100.572ZM100.572 93.6185H101.572V92.6185H100.572V93.6185ZM91.2812 93.6185H90.2812V94.6185H91.2812V93.6185ZM91.2812 91.1966V90.1966H90.2812V91.1966H91.2812ZM103.919 91.1966H104.919V90.1966H103.919V91.1966ZM103.919 93.2662L104.714 93.8726L104.919 93.604V93.2662H103.919ZM94.5837 105.508L93.7885 104.901L93.5837 105.17V105.508H94.5837ZM94.5837 105.684H93.5837V106.684H94.5837V105.684ZM104.227 105.684H105.227V104.684H104.227V105.684ZM104.227 108.106V109.106H105.227V108.106H104.227ZM90.9729 108.106H91.9729V106.124H90.9729H89.9729V108.106H90.9729ZM90.9729 106.124L91.762 106.739L101.361 94.409L100.572 93.7946L99.7833 93.1803L90.1839 105.51L90.9729 106.124ZM100.572 93.7946H101.572V93.6185H100.572H99.5723V93.7946H100.572ZM100.572 93.6185V92.6185H91.2812V93.6185V94.6185H100.572V93.6185ZM91.2812 93.6185H92.2812V91.1966H91.2812H90.2812V93.6185H91.2812ZM91.2812 91.1966V92.1966H103.919V91.1966V90.1966H91.2812V91.1966ZM103.919 91.1966H102.919V93.2662H103.919H104.919V91.1966H103.919ZM103.919 93.2662L103.124 92.6598L93.7885 104.901L94.5837 105.508L95.3789 106.114L104.714 93.8726L103.919 93.2662ZM94.5837 105.508H93.5837V105.684H94.5837H95.5837V105.508H94.5837ZM94.5837 105.684V106.684H104.227V105.684V104.684H94.5837V105.684ZM104.227 105.684H103.227V108.106H104.227H105.227V105.684H104.227ZM104.227 108.106V107.106H90.9729V108.106V109.106H104.227V108.106Z" fill="black" mask="url(#path-2-outside-1_9_6)"/>
</svg>
