<svg width="308" height="430" viewBox="0 0 308 430" fill="none" xmlns="http://www.w3.org/2000/svg">
<path d="M5.24011 208.721C5.24012 167.207 29.0104 66.2501 41.6764 20.9456L266.54 23.9261C274.348 26.3106 302.456 183.137 302.456 215.874C302.456 241.507 280.768 344.833 266.54 394.708C246.079 402.753 194.637 419.148 156.19 419.148C117.771 419.148 59.2211 405.997 39.794 393.178C29.2102 349.662 5.2401 259.725 5.24011 208.721Z" fill="#50351A" stroke="#691B1B"/>
<g filter="url(#filter0_d_9_3)">
<path d="M269.097 22.3193C274.775 44.4321 283.29 80.5935 290.387 117.235C297.476 153.842 303.177 191.055 303.177 215.21C303.177 239.373 297.474 274.382 290.383 308.235C283.284 342.122 274.768 374.976 269.087 394.886L268.891 395.571L268.234 395.853C248.615 404.258 198.548 421.085 155.147 421.085C110.836 421.085 59.7113 404.262 39.6768 395.857L39.0166 395.58L38.8164 394.894C33.0148 374.984 24.3169 342.129 17.0674 308.242C9.82505 274.388 4.00011 239.377 4 215.21C4 191.052 9.82198 153.836 17.0625 117.229C24.3102 80.5869 33.0063 44.4247 38.8057 22.3115L39.4531 19.8418L41.2959 21.6104C42.9875 23.2339 46.393 25.1333 51.8857 27.0488C57.3329 28.9485 64.6849 30.8148 74.1191 32.458C92.8496 35.7203 119.688 38.0834 155.918 38.1172C191.387 38.0834 217.281 35.7204 235.234 32.46C244.277 30.8178 251.279 28.9522 256.464 27.0557C261.687 25.1451 264.932 23.2497 266.594 21.6211L268.45 19.8018L269.097 22.3193ZM41.1279 25.3018C35.3524 47.5186 27.0005 82.4448 20.0049 117.812C12.7635 154.423 7 191.378 7 215.21C7.00011 239.033 12.7615 273.774 20.001 307.614C27.15 341.032 35.7144 373.449 41.4971 393.362C61.8114 401.784 111.884 418.085 155.147 418.085C197.491 418.085 246.502 401.793 266.397 393.371C272.06 373.457 280.446 341.04 287.446 307.621C294.535 273.781 300.177 239.036 300.177 215.21C300.177 191.375 294.532 154.417 287.441 117.807C280.596 82.4631 272.426 47.5603 266.771 25.3408C264.58 26.8851 261.491 28.4114 257.495 29.873C252.104 31.8452 244.925 33.7485 235.771 35.4111C217.723 38.6886 191.891 41.0475 156.706 41.1152V41.1191C156.443 41.1191 156.18 41.1174 155.918 41.1172C155.662 41.1174 155.405 41.1191 155.147 41.1191V41.1152C119.188 41.0489 92.4175 38.6897 73.6045 35.4131C64.0643 33.7515 56.5445 31.8498 50.8984 29.8809C46.6713 28.4067 43.4077 26.8647 41.1279 25.3018Z" fill="black"/>
</g>
<path d="M154.107 1.5C185.756 1.5 214.37 3.84057 235.038 7.61035C245.384 9.49749 253.665 11.7298 259.323 14.1699C262.158 15.3924 264.251 16.6316 265.61 17.8438C266.976 19.0609 267.441 20.0984 267.441 20.9453C267.441 21.7922 266.976 22.8297 265.61 24.0469C264.251 25.259 262.158 26.4982 259.323 27.7207C253.665 30.1608 245.384 32.3931 235.038 34.2803C214.37 38.0501 185.756 40.3916 154.107 40.3916C122.459 40.3916 93.8455 38.05 73.1778 34.2803C62.8316 32.3931 54.5511 30.1608 48.8926 27.7207C46.0578 26.4982 43.9654 25.259 42.6055 24.0469C41.24 22.8296 40.7745 21.7922 40.7745 20.9453C40.7746 20.0984 41.24 19.0609 42.6055 17.8438C43.9654 16.6316 46.0578 15.3924 48.8926 14.1699C54.5511 11.7298 62.8316 9.49748 73.1778 7.61035C93.8454 3.8406 122.459 1.50002 154.107 1.5Z" fill="black" stroke="black" stroke-width="3"/>
<path d="M28.8823 70.6165C28.8823 70.6165 104.291 93.5807 153.588 93.5807C202.886 93.5807 278.294 70.6165 278.294 70.6165M34.0784 366.13C39.4306 364.345 104.888 378.217 153.588 378.217C202.289 378.217 268.941 365.051 274.657 367.445" stroke="black" stroke-width="18"/>
<defs>
<filter id="filter0_d_9_3" x="0" y="19.8018" width="307.177" height="409.283" filterUnits="userSpaceOnUse" color-interpolation-filters="sRGB">
<feFlood flood-opacity="0" result="BackgroundImageFix"/>
<feColorMatrix in="SourceAlpha" type="matrix" values="0 0 0 0 0 0 0 0 0 0 0 0 0 0 0 0 0 0 127 0" result="hardAlpha"/>
<feOffset dy="4"/>
<feGaussianBlur stdDeviation="2"/>
<feComposite in2="hardAlpha" operator="out"/>
<feColorMatrix type="matrix" values="0 0 0 0 0 0 0 0 0 0 0 0 0 0 0 0 0 0 0.25 0"/>
<feBlend mode="normal" in2="BackgroundImageFix" result="effect1_dropShadow_9_3"/>
<feBlend mode="normal" in="SourceGraphic" in2="effect1_dropShadow_9_3" result="shape"/>
</filter>
</defs>
</svg>
