<svg width="235" height="412" viewBox="0 0 235 412" fill="none" xmlns="http://www.w3.org/2000/svg">
<path d="M36.6667 67.0077L81.7491 108.52C86.7583 122.687 103.933 144.431 115.167 144.102C124.154 143.838 143.111 124.664 148.584 108.52L193.667 67.0077L134.245 81.6688L115.167 16.1057L96.0883 81.6688L36.6667 67.0077Z" fill="#D9D9D9" stroke="black" stroke-width="9"/>
<path d="M143.667 227.106C150.126 202.999 127.5 165.772 114.167 147.606C93.1666 169.606 79.7614 208.799 84.6666 227.106C92.8391 257.606 99.6666 269.606 114.167 269.606C128.667 269.606 135.092 259.106 143.667 227.106Z" fill="#D9D9D9" stroke="black" stroke-width="9"/>
<path d="M5.72205e-06 199.106C5.72205e-06 209.415 8.35736 217.772 18.6667 217.772C28.976 217.772 37.3333 209.415 37.3333 199.106C37.3333 188.796 28.976 180.439 18.6667 180.439C8.35736 180.439 5.72205e-06 188.796 5.72205e-06 199.106ZM93.6667 180.606L94.7317 177.272C81.991 173.202 65.58 173.283 50.8808 176.67C36.2994 180.03 22.4701 186.867 15.735 197.194L18.6667 199.106L21.5983 201.018C26.8633 192.945 38.534 186.698 52.4525 183.491C66.2533 180.312 81.3423 180.343 92.6016 183.94L93.6667 180.606Z" fill="black"/>
<path d="M137.732 183.599L134.398 184.664L132.268 177.996L135.602 176.931L136.667 180.265L137.732 183.599ZM234.833 204.606C234.833 214.915 226.476 223.272 216.167 223.272C205.857 223.272 197.5 214.915 197.5 204.606C197.5 194.296 205.857 185.939 216.167 185.939C226.476 185.939 234.833 194.296 234.833 204.606ZM136.667 180.265L135.602 176.931C148.567 172.79 166.244 174.471 181.948 179.316C197.574 184.137 212.421 192.456 219.098 202.694L216.167 204.606L213.235 206.518C207.912 198.356 195.009 190.671 179.885 186.005C164.839 181.363 148.767 180.074 137.732 183.599L136.667 180.265Z" fill="black"/>
<path d="M105.893 267.962L107.25 264.736L100.797 262.023L99.4402 265.249L102.667 266.606L105.893 267.962ZM64.0394 375.674L47.9627 410.968L88.3707 410.243L71.0382 375.549L64.0394 375.674ZM102.667 266.606L99.4402 265.249C87.1269 294.538 69.5011 343.96 64.1427 378.573L67.6015 379.109L71.0603 379.644C76.2845 345.898 93.6382 297.112 105.893 267.962L102.667 266.606Z" fill="black"/>
<path d="M127.44 268.462L126.084 265.236L132.537 262.523L133.893 265.749L130.667 267.106L127.44 268.462ZM169.294 376.174L185.371 411.468L144.963 410.743L162.295 376.049L169.294 376.174ZM130.667 267.106L133.893 265.749C146.206 295.038 163.832 344.46 169.19 379.073L165.732 379.609L162.273 380.144C157.049 346.398 139.695 297.612 127.44 268.462L130.667 267.106Z" fill="black"/>
<path d="M79.6667 77.1057L100.167 107.606L134.667 83.6057" stroke="black" stroke-width="6"/>
<ellipse cx="100.836" cy="107.382" rx="7.5" ry="5.5" transform="rotate(26.6076 100.836 107.382)" fill="black"/>
<ellipse cx="7.5" cy="5.5" rx="7.5" ry="5.5" transform="matrix(0.894095 -0.447877 -0.447877 -0.894095 126.593 115.659)" fill="black"/>
</svg>
